PathFileType	4	(X/Y/Z)	C:\Users\86182\Documents\cortex\Trimmed_M1_H14.trc
DataRate	CameraRate	NumFrames	NumMarkers	Units	OrigDataRate	OrigDataStartFrame	OrigNumFrames
100.00	100.00	       126	2	mm	100.00	721	       901
Frame#	Time	gripper			box			
		X1	Y1	Z1	X2	Y2	Z2	

721	7.200	226.10809	206.35576	285.37375	230.74536	205.68077	134.88820	
722	7.210	226.07858	206.37157	285.38107	230.54976	205.66887	134.99817	
723	7.220	226.11285	206.35805	285.37378	230.55273	205.67543	134.99780	
724	7.230	226.12247	206.36269	285.37378	230.78494	205.66179	134.87607	
725	7.240	226.10809	206.35576	285.37375	230.69133	205.65402	134.93431	
726	7.250	226.10809	206.35576	285.37375	230.66451	205.68619	134.92281	
727	7.260	226.10809	206.35576	285.37375	230.66257	205.65173	134.94902	
728	7.270	226.11771	206.36038	285.37375	230.55920	205.67775	134.99382	
729	7.280	226.08104	206.36528	285.37927	230.64854	205.66656	134.94569	
730	7.290	226.10809	206.35576	285.37375	230.72820	205.65164	134.91632	
731	7.300	226.07144	206.36066	285.37927	230.68219	205.67802	134.92647	
732	7.310	226.10809	206.35576	285.37375	230.56917	205.69794	134.97017	
733	7.320	226.04703	206.36391	285.38290	230.52240	205.68306	135.00732	
734	7.330	225.98538	206.37215	285.39218	230.58105	205.70642	134.96587	
735	7.340	225.95981	206.39037	285.39966	230.64859	205.69537	134.92943	
736	7.350	226.08380	206.35899	285.37738	230.61992	205.67792	134.95993	
737	7.360	226.10809	206.35576	285.37375	230.68622	205.68329	134.91689	
738	7.370	226.04703	206.36391	285.38290	230.52390	205.67903	135.00343	
739	7.380	226.10809	206.35576	285.37375	230.77122	205.67638	134.87276	
740	7.390	226.10809	206.35576	285.37375	230.64816	205.68864	134.92975	
741	7.400	226.10809	206.35576	285.37375	230.70891	205.65430	134.92232	
742	7.410	225.98538	206.37215	285.39218	230.54968	205.68248	134.99667	
743	7.420	226.09595	206.35738	285.37558	230.68092	205.66847	134.93173	
744	7.430	226.04703	206.36391	285.38290	230.64854	205.66656	134.94569	
745	7.440	225.99776	206.37050	285.39029	230.70439	205.67393	134.91040	
746	7.450	226.05930	206.36227	285.38107	230.53604	205.70007	134.98880	
747	7.460	226.10809	206.35576	285.37375	230.69044	205.66653	134.92323	
748	7.470	226.04915	206.37247	285.38477	230.71227	205.67612	134.90698	
749	7.480	226.05930	206.36227	285.38107	230.55310	205.70135	134.98573	
750	7.490	225.95981	206.39037	285.39966	230.58951	205.69125	134.95932	
751	7.500	225.97301	206.37381	285.39404	230.55531	205.67809	134.99330	
752	7.510	225.99776	206.37050	285.39029	230.46826	205.68805	135.03271	
753	7.520	226.03477	206.36555	285.38477	230.54350	205.68303	134.99602	
754	7.530	226.10809	206.35576	285.37375	230.51057	205.67542	135.02043	
755	7.540	226.04703	206.36391	285.38290	230.64816	205.68864	134.92975	
756	7.550	226.10809	206.35576	285.37375	230.59749	205.70294	134.95010	
757	7.560	226.10809	206.35576	285.37375	230.76199	205.67148	134.88127	
758	7.570	226.10809	206.35576	285.37375	230.59109	205.66606	134.98048	
759	7.580	226.11285	206.35805	285.37378	230.48553	205.72095	135.00771	
760	7.590	226.07144	206.36066	285.37927	230.53732	205.70660	134.98802	
761	7.600	226.09595	206.35738	285.37558	230.65791	205.64928	134.95332	
762	7.610	226.10809	206.35576	285.37375	230.59749	205.70294	134.95010	
763	7.620	226.10809	206.35576	285.37375	230.45978	205.72435	135.01439	
764	7.630	226.10809	206.35576	285.37375	230.68434	205.66820	134.93245	
765	7.640	226.10809	206.35576	285.37375	230.63348	205.67854	134.94745	
766	7.650	226.12738	206.36505	285.37375	230.78734	205.67395	134.86589	
767	7.660	226.10809	206.35576	285.37375	230.74310	205.63959	134.91470	
768	7.670	226.10809	206.35576	285.37375	230.74310	205.63959	134.91470	
769	7.680	226.10809	206.35576	285.37375	230.70953	205.64174	134.93356	
770	7.690	226.10809	206.35576	285.37375	230.57840	205.70284	134.96165	
771	7.700	226.10809	206.35576	285.37375	230.69699	205.63699	134.94133	
772	7.710	226.10809	206.35576	285.37375	230.75966	205.65927	134.89146	
773	7.720	226.10809	206.35576	285.37375	230.72968	205.65433	134.91115	
774	7.730	226.10809	206.35576	285.37375	230.78952	205.66422	134.87183	
775	7.740	226.10809	206.35576	285.37375	230.78435	205.67140	134.87054	
776	7.750	226.10809	206.35576	285.37375	230.69510	205.66899	134.91896	
777	7.760	226.10809	206.35576	285.37375	230.64470	205.69571	134.92889	
778	7.770	226.05930	206.36227	285.38107	230.78952	205.66422	134.87183	
779	7.780	226.10809	206.35576	285.37375	230.78952	205.66422	134.87183	
780	7.790	226.10809	206.35576	285.37375	230.77122	205.67638	134.87276	
781	7.800	226.10809	206.35576	285.37375	230.75247	205.64456	134.90605	
782	7.810	226.10809	206.35576	285.37375	230.75966	205.65927	134.89146	
783	7.820	226.10809	206.35576	285.37375	230.74207	205.65900	134.90347	
784	7.830	226.10809	206.35576	285.37375	230.75247	205.64456	134.90605	
785	7.840	226.10809	206.35576	285.37375	230.80333	205.67154	134.85909	
786	7.850	226.10809	206.35576	285.37375	230.77565	205.65685	134.88464	
787	7.860	226.11771	206.36038	285.37375	230.72298	205.65889	134.91502	
788	7.870	226.10809	206.35576	285.37375	230.76176	205.64949	134.89748	
789	7.880	226.10809	206.35576	285.37375	230.75713	205.64702	134.90176	
790	7.890	226.10809	206.35576	285.37375	230.78494	205.66179	134.87607	
791	7.900	226.10809	206.35576	285.37375	230.80333	205.67154	134.85909	
792	7.910	226.12247	206.36269	285.37378	230.75511	205.67880	134.87962	
793	7.920	226.10809	206.35576	285.37375	230.74774	205.64206	134.91040	
794	7.930	226.10809	206.35576	285.37375	230.78494	205.66179	134.87607	
795	7.940	226.10809	206.35576	285.37375	230.78893	205.67383	134.86632	
796	7.950	226.10809	206.35576	285.37375	230.77565	205.65685	134.88464	
797	7.960	226.10809	206.35576	285.37375	230.77122	205.67638	134.87276	
798	7.970	226.11771	206.36038	285.37375	230.61569	205.68793	134.95374	
799	7.980	226.10809	206.35576	285.37375	230.78952	205.66422	134.87183	
800	7.990	226.10809	206.35576	285.37375	230.68553	205.64189	134.94389	
801	8.000	226.12247	206.36269	285.37378	230.65096	205.66353	134.95140	
802	8.010	226.10809	206.35576	285.37375	230.75053	205.67638	134.88385	
803	8.020	226.11285	206.35805	285.37378	230.59215	205.68135	134.96510	
804	8.030	226.10809	206.35576	285.37375	230.56613	205.69249	134.97932	
805	8.040	226.10809	206.35576	285.37375	230.61772	205.70015	134.94370	
806	8.050	226.10809	206.35576	285.37375	230.62749	205.64426	134.97327	
807	8.060	226.10809	206.35576	285.37375	230.52881	205.69495	134.99757	
808	8.070	226.10809	206.35576	285.37375	230.48174	205.68968	135.02905	
809	8.080	226.13699	206.36967	285.37378	230.53139	205.69760	134.99307	
810	8.090	226.09595	206.35738	285.37558	230.32077	205.73341	135.08830	
811	8.100	226.10809	206.35576	285.37375	230.34184	205.71712	135.08414	
812	8.110	226.05930	206.36227	285.38107	230.52704	205.69801	134.99274	
813	8.120	226.10809	206.35576	285.37375	230.55223	205.71002	134.97163	
814	8.130	226.04703	206.36391	285.38290	230.33641	205.70293	135.10559	
815	8.140	226.09595	206.35738	285.37558	230.36661	205.70117	135.08716	
816	8.150	226.15150	206.37666	285.37378	230.43013	205.69443	135.05446	
817	8.160	226.10809	206.35576	285.37375	230.50490	205.70197	135.00764	
818	8.170	226.11285	206.35805	285.37378	230.54402	205.68587	134.99127	
819	8.180	226.15636	206.37900	285.37378	230.50679	205.69888	135.01239	
820	8.190	226.03633	206.38907	285.39032	230.74310	205.63959	134.91470	
821	8.200	226.09595	206.35738	285.37558	230.58916	205.70470	134.95807	
822	8.210	226.12944	206.38860	285.37927	230.56667	205.69533	134.97462	
823	8.220	225.96063	206.37546	285.39590	230.63989	205.69717	134.93755	
824	8.230	226.08076	206.38016	285.38293	230.39503	205.68021	135.08009	
825	8.240	226.01479	206.37115	285.38849	230.54356	205.67435	135.01054	
826	8.250	226.07858	206.37157	285.38107	230.60391	205.67645	134.96239	
827	8.260	226.10809	206.35576	285.37375	230.57281	205.70717	134.96504	
828	8.270	226.04703	206.36391	285.38290	230.65923	205.68773	134.93167	
829	8.280	225.99776	206.37050	285.39029	230.71355	205.67879	134.90190	
830	8.290	226.12239	206.37758	285.37741	230.42537	205.68901	135.06329	
831	8.300	226.07144	206.36066	285.37927	230.60065	205.68741	134.96573	
832	8.310	226.10072	206.35968	285.37561	230.49995	205.69662	135.01653	
833	8.320	226.04703	206.36391	285.38290	230.79410	205.66664	134.86758	
834	8.330	226.08380	206.35899	285.37738	230.58293	205.67645	134.97366	
835	8.340	226.15150	206.37666	285.37378	230.46512	205.68927	135.04062	
836	8.350	226.11969	206.38390	285.37930	230.57544	205.68877	134.98520	
837	8.360	226.05141	206.38110	285.38660	230.69720	205.68124	134.90886	
838	8.370	226.10034	206.37457	285.37927	230.58484	205.68022	134.97829	
839	8.380	226.05180	206.36621	285.38293	230.80333	205.67154	134.85909	
840	8.390	226.10809	206.35576	285.37375	230.69510	205.66899	134.91896	
841	8.400	226.08380	206.35899	285.37738	230.76642	205.65196	134.89319	
842	8.410	226.05930	206.36227	285.38107	230.78893	205.67383	134.86632	
843	8.420	226.15150	206.37666	285.37378	230.77565	205.65685	134.88464	
844	8.430	226.10809	206.35576	285.37375	230.80333	205.67154	134.85909	
845	8.440	225.90314	206.38606	285.40524	230.69417	205.66348	134.92947	
846	8.450	226.04439	206.37018	285.38477	230.78029	205.65932	134.88036	
